<svg width="30" height="20" viewBox="0 0 30 20" fill="none" xmlns="http://www.w3.org/2000/svg">
<path d="M19.5917 13.7967H29.3877C29.755 13.7967 29.9999 13.6394 29.9999 13.4034V9.86329C29.9999 9.62729 29.755 9.46997 29.3877 9.46997H19.5917C19.2244 9.46997 18.9795 9.62729 18.9795 9.86329V13.4034C18.9794 13.6393 19.2244 13.7967 19.5917 13.7967ZM20.2039 10.2566H28.7755V13.01H20.2039V10.2566Z" fill="#D43D2E"/>
<path d="M3.06108 8.68337H7.9591C8.32645 8.68337 8.57132 8.52605 8.57132 8.29005C8.57132 8.05405 8.32645 7.89673 7.9591 7.89673H3.06108C2.69373 7.89673 2.44885 8.05405 2.44885 8.29005C2.44885 8.52605 2.69373 8.68337 3.06108 8.68337Z" fill="#D43D2E"/>
<path d="M10.4082 8.68337H15.3063C15.6736 8.68337 15.9185 8.52605 15.9185 8.29005C15.9185 8.05405 15.6736 7.89673 15.3063 7.89673H10.4082C10.0409 7.89673 9.79602 8.05405 9.79602 8.29005C9.79602 8.52605 10.0409 8.68337 10.4082 8.68337Z" fill="#D43D2E"/>
<path d="M3.06108 10.2566H11.0203C11.3876 10.2566 11.6325 10.0993 11.6325 9.86329C11.6325 9.62729 11.3876 9.46997 11.0203 9.46997H3.06108C2.69373 9.46997 2.44885 9.62729 2.44885 9.86329C2.44885 10.0993 2.69373 10.2566 3.06108 10.2566Z" fill="#D43D2E"/>
<path d="M15.306 9.46997H13.4693C13.1019 9.46997 12.8571 9.62729 12.8571 9.86329C12.8571 10.0993 13.1019 10.2566 13.4693 10.2566H15.306C15.6734 10.2566 15.9183 10.0993 15.9183 9.86329C15.9183 9.62729 15.6734 9.46997 15.306 9.46997Z" fill="#D43D2E"/>
<path d="M29.1482 4.60993C28.8029 4.25443 28.3591 4.05692 27.8165 4.01743L26.6328 3.90254V2.79291V2.00295C26.6328 1.13397 25.7451 0.422974 24.6601 0.422974H1.97278C0.887761 0.422927 0 1.13392 0 2.00295V2.79296V5.95295V14.6429C0 15.3563 0.598603 15.9629 1.41331 16.1573C1.38846 16.9564 2.14334 17.6501 3.15652 17.7238L25.9424 19.7778C25.9917 19.7778 26.0904 19.7778 26.1397 19.7778C27.1261 19.7778 28.0138 19.1853 28.1124 18.4348L29.592 5.75543C29.6413 5.36041 29.4934 4.92589 29.1482 4.60993ZM0.986421 3.18794H25.6465V4.21494V5.55792H0.986421V3.18794ZM1.97278 1.21294H24.66C25.2025 1.21294 25.6464 1.56843 25.6464 2.00295V2.39793H0.986421V2.00295C0.986421 1.56843 1.4303 1.21294 1.97278 1.21294ZM0.986421 14.6428V6.34788H25.6465V14.6428C25.6465 15.0773 25.2026 15.4328 24.6601 15.4328H2.02214H1.97284C1.4303 15.4328 0.986421 15.0773 0.986421 14.6428ZM28.6056 5.5974L27.126 18.2768C27.0767 18.7113 26.5835 19.0273 26.041 18.9878L3.30443 16.9338C2.81124 16.8943 2.46597 16.5783 2.41666 16.2228H24.66C25.745 16.2228 26.6328 15.5118 26.6328 14.6429V5.9529V4.64941L27.7672 4.72843C28.0138 4.72843 28.2603 4.84692 28.4083 5.00491C28.5563 5.16289 28.655 5.39989 28.6056 5.5974Z" fill="#D43D2E"/>
</svg>
