<svg width="41" height="32" viewBox="0 0 41 32" fill="none" xmlns="http://www.w3.org/2000/svg">
<g clip-path="url(#clip0)">
<path d="M31.6706 14.0199H29.5119C29.3849 14.0199 29.2579 14.1182 29.1944 14.2166L28.3055 18.544C28.3055 18.6424 28.369 18.6915 28.496 18.6915H29.6389C29.7659 18.6915 29.8293 18.6424 29.8293 18.544L30.0833 17.3146C30.0833 17.2163 30.2103 17.1179 30.4008 17.1179H31.0992C32.5595 17.1179 33.3849 16.577 33.5754 15.4952C33.7024 15.0526 33.5754 14.6592 33.3214 14.4133C32.9405 14.1674 32.369 14.0199 31.6706 14.0199ZM31.9246 15.6427C31.7976 16.2328 31.2262 16.2328 30.6547 16.2328H30.2738L30.5278 15.1018C30.5278 15.0526 30.5913 15.0034 30.7182 15.0034H30.8452C31.2262 15.0034 31.6071 15.0034 31.7976 15.2001C31.9246 15.2493 31.9246 15.3968 31.9246 15.6427Z" fill="#139AD6"/>
<path d="M16.1151 14.0199H13.9563C13.8294 14.0199 13.7024 14.1182 13.6389 14.2166L12.75 18.544C12.75 18.6424 12.8135 18.6915 12.9405 18.6915H13.9563C14.0833 18.6915 14.2103 18.5932 14.2738 18.4948L14.5278 17.3146C14.5278 17.2163 14.6548 17.1179 14.8452 17.1179H15.5436C17.004 17.1179 17.8294 16.577 18.0198 15.4952C18.1468 15.0526 18.0198 14.6592 17.7659 14.4133C17.3849 14.1674 16.877 14.0199 16.1151 14.0199ZM16.369 15.6427C16.2421 16.2328 15.6706 16.2328 15.0992 16.2328H14.7817L15.0357 15.1018C15.0357 15.0526 15.0992 15.0034 15.2262 15.0034H15.3532C15.7341 15.0034 16.1151 15.0034 16.3056 15.2001C16.369 15.2493 16.4325 15.3968 16.369 15.6427Z" fill="#263B80"/>
<path d="M22.6547 15.5935H21.6389C21.5754 15.5935 21.4484 15.6426 21.4484 15.6918L21.3849 15.9377L21.3214 15.8393C21.0674 15.5935 20.623 15.4951 20.1151 15.4951C18.9722 15.4951 17.9563 16.1836 17.7658 17.1179C17.6389 17.6097 17.8293 18.0522 18.1468 18.3473C18.4643 18.6423 18.9087 18.7407 19.4801 18.7407C20.4325 18.7407 20.9404 18.2981 20.9404 18.2981L20.877 18.544C20.877 18.6423 20.9404 18.6915 21.0674 18.6915H22.0198C22.1468 18.6915 22.2738 18.5932 22.3373 18.4948L22.9087 15.741C22.8452 15.6918 22.7182 15.5935 22.6547 15.5935ZM21.1944 17.1671C21.0674 17.6097 20.623 17.9539 19.9881 17.9539C19.6706 17.9539 19.4166 17.8555 19.2897 17.7572C19.1627 17.6097 19.0992 17.413 19.0992 17.1671C19.1627 16.7245 19.6706 16.3803 20.242 16.3803C20.5595 16.3803 20.75 16.4786 20.9404 16.577C21.1309 16.7245 21.1944 16.9704 21.1944 17.1671Z" fill="#263B80"/>
<path d="M38.1468 15.5935H37.1309C37.0674 15.5935 36.9405 15.6426 36.9405 15.6918L36.877 15.9377L36.8135 15.8393C36.5595 15.5935 36.1151 15.4951 35.6071 15.4951C34.4643 15.4951 33.4484 16.1836 33.2579 17.1179C33.1309 17.6097 33.3214 18.0522 33.6389 18.3473C33.9563 18.6423 34.4008 18.7407 34.9722 18.7407C35.9246 18.7407 36.4325 18.2981 36.4325 18.2981L36.369 18.544C36.369 18.6423 36.4325 18.6915 36.5595 18.6915H37.5119C37.6389 18.6915 37.7659 18.5932 37.8293 18.4948L38.4008 15.741C38.3373 15.6918 38.2738 15.5935 38.1468 15.5935ZM36.6865 17.1671C36.5595 17.6097 36.1151 17.9539 35.4801 17.9539C35.1627 17.9539 34.9087 17.8555 34.7817 17.7572C34.6547 17.6097 34.5912 17.413 34.5912 17.1671C34.6547 16.7245 35.1627 16.3803 35.7341 16.3803C36.0516 16.3803 36.242 16.4786 36.4325 16.577C36.6865 16.7245 36.75 16.9704 36.6865 17.1671Z" fill="#139AD6"/>
<path d="M28.1786 15.5935H27.0992C26.9722 15.5935 26.9087 15.6427 26.8452 15.6919L25.4484 17.3638L24.8135 15.7902C24.75 15.6919 24.6865 15.6427 24.496 15.6427H23.4801C23.3532 15.6427 23.2897 15.741 23.2897 15.8394L24.4325 18.4457L23.3532 19.6259C23.2897 19.7242 23.3532 19.8717 23.4801 19.8717H24.496C24.623 19.8717 24.6865 19.8226 24.75 19.7734L28.2421 15.8886C28.4325 15.741 28.3055 15.5935 28.1786 15.5935Z" fill="#263B80"/>
<path d="M39.3531 14.1674L38.4642 18.5932C38.4642 18.6916 38.5277 18.7407 38.6547 18.7407H39.5436C39.6706 18.7407 39.7976 18.6424 39.8611 18.544L40.75 14.2166C40.75 14.1183 40.6865 14.0691 40.5595 14.0691H39.5436C39.4801 14.0199 39.4166 14.0691 39.3531 14.1674Z" fill="#139AD6"/>
<path d="M8.05159 12.5447C7.60714 12.1513 6.78175 11.9546 5.63889 11.9546H2.46429C2.27381 11.9546 2.08333 12.1021 2.01984 12.2496L0.75 18.6916C0.75 18.8391 0.876984 18.9375 1.00397 18.9375H2.97222L3.48016 16.5279V16.6262C3.54365 16.4787 3.73413 16.3312 3.9246 16.3312H4.87698C6.71825 16.3312 8.11508 15.7411 8.55952 14.1183C8.55952 14.0691 8.55952 14.02 8.55952 13.9708C8.49603 13.9708 8.49603 13.9708 8.55952 13.9708C8.62302 13.3315 8.49603 12.9381 8.05159 12.5447Z" fill="#263B80"/>
<path d="M8.49602 13.9707C8.49602 14.0199 8.49602 14.0691 8.49602 14.1182C8.05158 15.7902 6.65475 16.3311 4.81348 16.3311H3.8611C3.67063 16.3311 3.48015 16.4786 3.41666 16.6262L2.78174 19.6259C2.78174 19.7242 2.84523 19.8226 3.03571 19.8226H4.6865C4.87698 19.8226 5.06745 19.7242 5.06745 19.5767V19.5275L5.38491 18.0031V17.9047C5.38491 17.7572 5.57539 17.6588 5.76587 17.6588H6.01983C7.60714 17.6588 8.87698 17.1671 9.19444 15.6918C9.32142 15.1017 9.25793 14.5608 8.87698 14.2166C8.81348 14.1182 8.6865 14.0199 8.49602 13.9707Z" fill="#139AD6"/>
<path d="M8.05165 13.8233C7.98816 13.8233 7.92467 13.7741 7.86117 13.7741C7.79768 13.7741 7.73419 13.7741 7.6707 13.725C7.41673 13.6758 7.16276 13.6758 6.8453 13.6758H4.36911C4.30562 13.6758 4.24213 13.6758 4.17864 13.725C4.05165 13.7741 3.98816 13.8725 3.98816 13.9708L3.48022 16.5279V16.6263C3.54372 16.4788 3.73419 16.3312 3.92467 16.3312H4.87705C6.71832 16.3312 8.11514 15.7411 8.55959 14.1184C8.55959 14.0692 8.55959 14.02 8.62308 13.9708C8.4961 13.9217 8.4326 13.8725 8.30562 13.8725C8.11514 13.8233 8.11514 13.8233 8.05165 13.8233Z" fill="#232C65"/>
</g>
<defs>
<clipPath id="clip0">
<rect width="40" height="30.9804" fill="white" transform="translate(0.75 0.422974)"/>
</clipPath>
</defs>
</svg>
